HIERARCHY
ROOT RootJoint
{
    OFFSET   0.000000   0.000000   0.000000
    CHANNELS 6 Xposition Yposition Zposition Xrotation Yrotation Zrotation
    JOINT pelvis_lowerback
    {
        OFFSET   0.000000   0.093605   0.000000
        CHANNELS 3 Xrotation Yrotation Zrotation
        JOINT lowerback_torso
        {
            OFFSET   0.000000   0.100000   0.000000
            CHANNELS 3 Xrotation Yrotation Zrotation
            JOINT torso_head
            {
                OFFSET   0.000000   0.282350   0.000000
                CHANNELS 3 Xrotation Yrotation Zrotation
                End Site
                {
                    OFFSET   0.000000   0.192650   0.000000
                }
            }
            JOINT rTorso_Clavicle
            {
                OFFSET  -0.001000   0.157500   0.000000
                CHANNELS 3 Xrotation Yrotation Zrotation
                JOINT rShoulder
                {
                    OFFSET  -0.117647   0.000000   0.000000
                    CHANNELS 3 Xrotation Yrotation Zrotation
                    JOINT rElbow
                    {
                        OFFSET  -0.245000   0.000000   0.000000
                        CHANNELS 3 Xrotation Yrotation Zrotation
                        JOINT rWrist
                        {
                            OFFSET  -0.240000   0.000000   0.000000
                            CHANNELS 3 Xrotation Yrotation Zrotation
                            End Site
                            {
                                OFFSET  -0.116353  -0.002500   0.000000
                            }
                        }
                    }
                }
            }
            JOINT lTorso_Clavicle
            {
                OFFSET   0.001000   0.157500   0.000000
                CHANNELS 3 Xrotation Yrotation Zrotation
                JOINT lShoulder
                {
                    OFFSET   0.117647   0.000000   0.000000
                    CHANNELS 3 Xrotation Yrotation Zrotation
                    JOINT lElbow
                    {
                        OFFSET   0.245000   0.000000   0.000000
                        CHANNELS 3 Xrotation Yrotation Zrotation
                        JOINT lWrist
                        {
                            OFFSET   0.240000   0.000000   0.000000
                            CHANNELS 3 Xrotation Yrotation Zrotation
                            End Site
                            {
                                OFFSET   0.116353  -0.002500   0.000000
                            }
                        }
                    }
                }
            }
        }
    }
    JOINT rHip
    {
        OFFSET  -0.100000  -0.051395   0.000000
        CHANNELS 3 Xrotation Yrotation Zrotation
        JOINT rKnee
        {
            OFFSET   0.000000  -0.410000   0.000000
            CHANNELS 3 Xrotation Yrotation Zrotation
            JOINT rAnkle
            {
                OFFSET   0.000000  -0.390000   0.000000
                CHANNELS 3 Xrotation Yrotation Zrotation
                JOINT rToeJoint
                {
                    OFFSET   0.000000  -0.050000   0.130000
                    CHANNELS 3 Xrotation Yrotation Zrotation
                    End Site
                    {
                        OFFSET  -0.010000   0.002000   0.060000
                    }
                }
            }
        }
    }
    JOINT lHip
    {
        OFFSET   0.100000  -0.051395   0.000000
        CHANNELS 3 Xrotation Yrotation Zrotation
        JOINT lKnee
        {
            OFFSET   0.000000  -0.410000   0.000000
            CHANNELS 3 Xrotation Yrotation Zrotation
            JOINT lAnkle
            {
                OFFSET   0.000000  -0.390000   0.000000
                CHANNELS 3 Xrotation Yrotation Zrotation
                JOINT lToeJoint
                {
                    OFFSET   0.000000  -0.050000   0.130000
                    CHANNELS 3 Xrotation Yrotation Zrotation
                    End Site
                    {
                        OFFSET   0.010000   0.002000   0.060000
                    }
                }
            }
        }
    }
}
MOTION
Frames: 12
Frame Time:   0.008333
 -2.376719   0.925631   3.975860   0.000000   0.000000   0.000000   0.000000   0.000000   0.000000   0.000000   0.000000   0.000000   0.000000   0.000000   0.000000   0.000000   0.000000   0.000000   0.000000   0.000000   0.000000   0.000000   0.000000   0.000000   0.000000   0.000000   0.000000   0.000000   0.000000   0.000000   0.000000   0.000000   0.000000   0.000000   0.000000   0.000000   0.000000   0.000000   0.000000   0.000000   0.000000   0.000000   0.000000   0.000000   0.000000   0.000000   0.000000   0.000000   0.000000   0.000000   0.000000   0.000000   0.000000   0.000000   0.000000   0.000000   0.000000   0.000000   0.000000   0.000000   0.000000   0.000000   0.000000
 -2.376657   0.926521   3.975662   0.188896   0.040293   0.130583  -0.441142   0.147695  -0.174105   0.265853  -0.242026  -0.010524   0.024998   0.080109   0.044469   0.218451  -0.310217   0.896140   0.763255   0.443251   1.804844   0.021248   0.915080  -0.008075   0.490105  -0.651192  -3.115322   0.303165   0.176716  -0.927771   1.261281  -0.155345  -1.671422   0.016736  -0.719015   0.009995   0.487522   0.358917   3.095425  -0.621154   0.068650  -0.311391   1.406002   0.002234   0.001284  -1.243395  -0.293321   0.086375  -0.141791  -0.000115   0.000228  -0.624615  -0.094668   0.018640   1.181472  -0.001551  -0.000553  -0.854923   0.356043  -0.087375   0.309452  -0.000165   0.000810
 -2.376626   0.927964   3.975648   0.301882   0.104106   0.276255  -0.875989   0.284311  -0.361815   0.537970  -0.491567  -0.040396   0.060389   0.155753   0.083839   0.433456  -0.529147   2.617909   1.487249   0.977827   4.280306   0.049945   1.819063  -0.013586   1.001193  -1.004503  -5.427620   0.602232   0.256258  -2.678816   2.487409  -0.415230  -4.017809   0.039484  -1.426904   0.017274   1.018787   0.505348   5.404824  -1.124361   0.136363  -0.769685   2.890888   0.005921   0.002443  -2.402235  -0.573690   0.159374  -0.319046  -0.000462   0.000418  -1.179801  -0.184380   0.165470   2.415176  -0.004432  -0.000612  -1.650256   0.694240  -0.162964   0.562727  -0.000608   0.001338
 -2.376629   0.929471   3.975787   0.396402   0.167100   0.419527  -1.314799   0.412024  -0.547897   0.770987  -0.728930  -0.080069   0.088209   0.226467   0.119158   0.638990  -0.674943   4.819820   2.164956   1.580113   7.194656   0.078293   2.678649  -0.016765   1.494646  -1.210253  -6.769324   0.880011   0.263829  -4.913220   3.671379  -0.772422  -6.810694   0.062227  -2.102883   0.022080   1.536015   0.526937   6.743203  -1.544893   0.203097  -1.328774   4.316726   0.010041   0.002981  -3.481827  -0.838545   0.221296  -0.484009  -0.000881   0.000539  -1.691435  -0.267732   0.434026   3.586144  -0.007806  -0.000411  -2.391633   1.013023  -0.227931   0.788541  -0.001165   0.001672
 -2.376668   0.930682   3.976041   0.486409   0.216335   0.557802  -1.751689   0.534499  -0.731906   0.963753  -0.950284  -0.129862   0.106876   0.292648   0.152906   0.836502  -0.772106   7.277536   2.796039   2.239391  10.400772   0.102686   3.489268  -0.018342   1.969738  -1.331835  -7.386174   1.135391   0.227317  -7.417731   4.799625  -1.213872  -9.861501   0.081971  -2.743876   0.025037   2.037454   0.463526   7.334609  -1.904418   0.269098  -1.963228   5.663757   0.014003   0.002860  -4.489349  -1.088264   0.273689  -0.641433  -0.001321   0.000632  -2.171336  -0.347266   0.804221   4.681046  -0.011156  -0.000137  -3.084007   1.313074  -0.283514   0.987769  -0.001715   0.001836
 -2.376754   0.931313   3.976382   0.574258   0.247229   0.691378  -2.179861   0.653881  -0.916726   1.124609  -1.154134  -0.194094   0.118402   0.354429   0.186334   1.027658  -0.835852   9.870962   3.366307   2.932269  13.735902   0.121470   4.251055  -0.018789   2.427065  -1.396511  -7.474484   1.369832   0.164783 -10.083863   5.825134  -1.708708 -12.942246   0.097183  -3.350060   0.026465   2.522996   0.334009   7.355603  -2.214658   0.334552  -2.653220   6.931637   0.017474   0.002224  -5.430016  -1.323360   0.317831  -0.791944  -0.001738   0.000709  -2.623908  -0.425072   1.256601   5.702555  -0.014201   0.000135  -3.730838   1.595078  -0.330935   1.163564  -0.002194   0.001873
 -2.376862   0.931144   3.976785   0.659893   0.260617   0.817598  -2.594159   0.771342  -1.097980   1.261821  -1.339884  -0.260570   0.124996   0.411961   0.214750   1.214106  -0.875517  12.529569   3.858225   3.624011  17.019164   0.134135   4.966215  -0.018397   2.867295  -1.415700  -7.169062   1.584598   0.088625 -12.800343   6.752637  -2.241090 -15.974071   0.107591  -3.921393   0.026848   2.989529   0.159266   7.008312  -2.483426   0.399424  -3.382741   8.123505   0.020329   0.001265  -6.308303  -1.544339   0.354882  -0.934774  -0.002108   0.000769  -3.051876  -0.502641   1.773333   6.655561  -0.016759   0.000391  -4.335133   1.859844  -0.371239   1.319259  -0.002570   0.001826
 -2.376899   0.929468   3.976685   0.819406   0.191517   0.914590  -3.006645   0.890626  -1.203745   1.457375  -1.446260  -0.340233  -0.011596   0.333773   0.158223   1.492369  -0.606454  14.665846   4.264700   4.168046  19.870396   0.141688   5.750476  -0.020160   3.201265  -1.413891  -5.720650   1.814047  -0.060030 -14.792776   7.524080  -2.930619 -18.902844   0.112831  -4.516543   0.027872   3.347060  -0.019081   5.513059  -2.931971   0.379369  -4.036656   9.350770   0.022044  -0.001518  -7.086074  -1.849193   0.593353  -0.897801  -0.001579   0.000476  -3.459472  -0.315793   2.268719   7.046543  -0.015357   0.001065  -4.635423   2.155426  -0.465122   1.510828  -0.002844   0.002222
 -2.376906   0.926508   3.976284   0.983836   0.145448   1.000234  -3.341170   0.990120  -1.290787   1.652619  -1.546100  -0.413341  -0.143472   0.255170   0.100289   1.707610  -0.269874  16.448997   4.604534   4.742450  22.381133   0.141935   6.501951  -0.021614   3.537469  -1.325032  -4.423500   1.992002  -0.274857 -16.448687   8.198183  -3.654870 -21.492159   0.112798  -5.093169   0.028510   3.698675  -0.295273   4.127961  -3.388041   0.356422  -4.631871  10.486375   0.022452  -0.003456  -7.809664  -2.138728   0.811701  -0.851931  -0.001142   0.000219  -3.899116  -0.135898   2.719518   7.322868  -0.013518   0.001416  -4.918213   2.433430  -0.550833   1.693565  -0.002937   0.002503
 -2.376897   0.922406   3.975742   1.143829   0.114243   1.078075  -3.619900   1.082202  -1.367661   1.845127  -1.639459  -0.479752  -0.260235   0.181575   0.046554   1.869651   0.092952  17.967858   4.885957   5.322696  24.618516   0.137541   7.217670  -0.022516   3.869755  -1.169931  -3.396076   2.126439  -0.521821 -17.854038   8.787320  -4.383464 -23.799633   0.109220  -5.643843   0.028550   4.040562  -0.626917   3.007852  -3.824238   0.339820  -5.172698  11.535242   0.021955  -0.004671  -8.484571  -2.411116   1.011885  -0.808241  -0.000809   0.000034  -4.353412   0.029204   3.125439   7.548550  -0.011714   0.001584  -5.183414   2.693105  -0.629519   1.859714  -0.002876   0.002635
 -2.376877   0.917264   3.975161   1.297806   0.091141   1.149205  -3.860613   1.171118  -1.436681   2.029893  -1.724035  -0.540261  -0.363615   0.113015  -0.003338   1.991306   0.458774  19.281064   5.119342   5.890859  26.630628   0.130257   7.894394  -0.022817   4.192625  -0.977608  -2.589497   2.229171  -0.776165 -19.063856   9.304732  -5.095539 -25.873461   0.103378  -6.164237   0.027975   4.368017  -0.978697   2.110906  -4.232445   0.328192  -5.661987  12.507892   0.020869  -0.005379  -9.114079  -2.667007   1.195668  -0.767204  -0.000561  -0.000096  -4.807884   0.180519   3.488803   7.741445  -0.010056   0.001634  -5.431407   2.935500  -0.701912   2.012197  -0.002722   0.002656
 -2.377041   0.915613   3.974713   1.371792   0.144785   1.615224  -4.045822   1.246859  -1.859880   2.247076  -1.811782  -0.732053  -0.453300   0.048292  -0.061285   2.091437   0.823804  20.741048   5.312845   6.441937  28.573389   0.122900   8.521687  -0.022603   4.501653  -0.811189  -1.956778   2.303608  -1.036665 -20.299280   9.758821  -5.782787 -27.771317   0.097127  -6.642107   0.026727   4.678573  -1.259657   1.472076  -4.567235   0.414110  -6.181411  13.161583   0.017022  -0.004180 -10.336361  -2.769131   1.600625  -0.573555  -0.001107  -0.000106  -5.410643   0.470036   3.083670   8.581587  -0.008119   0.003904  -5.026533   3.252629  -1.034921   2.206030  -0.001714   0.003233
